<?xml version="1.0" encoding="utf-8"?>
<!DOCTYPE svg PUBLIC "-//W3C//DTD SVG 1.1//EN" "http://www.w3.org/Graphics/SVG/1.1/DTD/svg11.dtd">
<svg version="1.1" id="Layer_1" xmlns="http://www.w3.org/2000/svg" xmlns:xlink="http://www.w3.org/1999/xlink" x="0px" y="0px"
	 width="25px" height="25px" viewBox="0 0 250 250" enable-background="new 0 0 250 250" xml:space="preserve">
<g>
	<path d="M242.351,25.787H7.648c-3.452,0-6.25,2.799-6.25,6.25v36.939c0,3.452,2.798,6.25,6.25,6.25h234.702
		c3.452,0,6.25-2.798,6.25-6.25V32.037C248.601,28.586,245.803,25.787,242.351,25.787z M236.101,62.727H13.898V38.287h222.202
		V62.727z"/>
	<path d="M242.351,100.279H7.648c-3.452,0-6.25,2.798-6.25,6.25v36.939c0,3.452,2.798,6.25,6.25,6.25h234.702
		c3.452,0,6.25-2.798,6.25-6.25v-36.939C248.601,103.077,245.803,100.279,242.351,100.279z M236.101,137.219H13.898v-24.439h222.202
		V137.219z"/>
	<path d="M242.351,174.748H7.648c-3.452,0-6.25,2.798-6.25,6.25v36.964c0,3.452,2.798,6.25,6.25,6.25h234.702
		c3.452,0,6.25-2.798,6.25-6.25v-36.964C248.601,177.546,245.803,174.748,242.351,174.748z M236.101,211.712H13.898v-24.464h222.202
		V211.712z"/>
</g>
</svg>